<?xml version="1.0" encoding="utf-8"?>
<!-- Generator: Adobe Illustrator 27.5.0, SVG Export Plug-In . SVG Version: 6.00 Build 0)  -->
<svg version="1.1" id="Layer_1" xmlns="http://www.w3.org/2000/svg" xmlns:xlink="http://www.w3.org/1999/xlink" x="0px" y="0px"
	 viewBox="0 0 512 512" style="enable-background:new 0 0 512 512;" xml:space="preserve">
<g>
	<path d="M64.04,255.95L92.53,27.99C94.53,12,108.13,0,124.33,0h168.57c15,0,27.09,12.1,27.09,27.09c0,3.2-0.6,6.5-1.7,9.5
		L272,159.97h139.27c20.2,0,36.69,16.4,36.69,36.69c0,7.4-2.2,14.6-6.4,20.7L249.4,498.3c-5.9,8.6-15.6,13.7-25.89,13.7h-2.9
		c-15.7,0-28.49-12.8-28.49-28.49c0-2.3,0.3-4.6,0.9-6.9L240,287.94H96.03C78.33,287.94,64.04,273.65,64.04,255.95z"/>
</g>
</svg>
