<?xml version="1.0" encoding="utf-8"?>
<!-- Generator: Adobe Illustrator 27.7.0, SVG Export Plug-In . SVG Version: 6.00 Build 0)  -->
<svg version="1.1" id="Layer_1" xmlns="http://www.w3.org/2000/svg" xmlns:xlink="http://www.w3.org/1999/xlink" x="0px" y="0px"
	 viewBox="0 0 512 512" style="enable-background:new 0 0 512 512;" xml:space="preserve">
<g>
	<path d="M256,438.86H109.71c-13.46-0.02-24.36-10.93-24.38-24.38V268.19c0.02-13.46,10.93-24.36,24.38-24.38h243.81
		c13.47,0,24.38-10.92,24.38-24.38c0-13.47-10.92-24.38-24.38-24.38l-243.81,0c-40.41,0.02-73.13,32.74-73.14,73.14v146.29
		c0.02,40.41,32.74,73.13,73.14,73.14H256c13.47,0,24.38-10.92,24.38-24.38C280.38,449.77,269.47,438.86,256,438.86z"/>
	<path d="M182.86,341.33c0.02,26.94,21.82,48.75,48.76,48.76c26.94-0.02,48.75-21.82,48.76-48.76
		c-0.02-26.94-21.82-48.75-48.76-48.76C204.68,292.59,182.87,314.39,182.86,341.33c0,13.47,10.92,24.38,24.38,24.38
		s24.38-10.92,24.38-24.38v0v0h0c0-13.47-10.92-24.38-24.38-24.38S182.86,327.87,182.86,341.33L182.86,341.33z"/>
	<path d="M158.48,219.43V121.9c0.07-40.39,32.76-73.07,73.14-73.14c40.39,0.07,73.07,32.76,73.14,73.14v97.52
		c0,13.47,10.92,24.38,24.38,24.38c13.47,0,24.38-10.92,24.38-24.38l0-97.52C353.51,54.57,298.95,0.02,231.62,0
		c-67.34,0.02-121.89,54.57-121.9,121.9v97.52c0,13.47,10.92,24.38,24.38,24.38S158.48,232.89,158.48,219.43L158.48,219.43z"/>
	<path d="M451.05,292.57H390.1c-33.67,0.02-60.94,27.28-60.95,60.95c0.02,33.67,27.28,60.94,60.95,60.95h24.38
		c6.72,0.01,12.18,5.47,12.19,12.19c-0.01,6.72-5.47,12.18-12.19,12.19h-60.95c-13.47,0-24.38,10.92-24.38,24.38
		s10.92,24.38,24.38,24.38h60.95c33.67-0.02,60.94-27.28,60.95-60.95c-0.02-33.67-27.28-60.94-60.95-60.95H390.1
		c-6.72-0.01-12.18-5.47-12.19-12.19c0.01-6.72,5.47-12.18,12.19-12.19h60.95c13.47,0,24.38-10.92,24.38-24.38
		C475.43,303.49,464.51,292.57,451.05,292.57L451.05,292.57z"/>
	<path d="M377.9,463.24v24.38c0,13.47,10.92,24.38,24.38,24.38c13.47,0,24.38-10.92,24.38-24.38v-24.38
		c0-13.47-10.92-24.38-24.38-24.38C388.82,438.86,377.9,449.77,377.9,463.24z M377.9,292.57v24.38c0,13.47,10.92,24.38,24.38,24.38
		c13.47,0,24.38-10.92,24.38-24.38v-24.38c0-13.47-10.92-24.38-24.38-24.38C388.82,268.19,377.9,279.11,377.9,292.57z"/>
</g>
</svg>
